# xmcd
#
# Track frame offsets: 
#        183
#        12665
#        28060
#        40493
#        56783
#        72450
#        93588
#        109888
#        124578
#        138780
#        152975
#        186065
#
# Disc length: 2944 seconds
#
# Revision: 1
# Processed by: cddbd v1.5.2PL0 Copyright (c) Steve Scherf et al.
# Submitted via: ExactAudioCopy v1.3
#
DISCID=ae0b7e0c
DTITLE=Simon Wynberg and John Anderson - Summertime
DYEAR=1983
DGENRE=Classical
TTITLE0=Sor La Romanesca
TTITLE1=Satie Gymnopedie No 1
TTITLE2=Satie Gnossienne No 1
TTITLE3=Mertz from Bardenklang No 1 An die Entfernte
TTITLE4=Mertz from Bardenklang No 3 An Malvina
TTITLE5=Villa‐Lobos Distrabucao de Flores
TTITLE6=Gershwin Summertime from Porgy and Bess
TTITLE7=Ibert Entr'acte
TTITLE8=J S Bach Adagio from Toccata Adagio and Fugue BWV 564
TTITLE9=Coste Les Regrets Op 36
TTITLE10=Sor Marche Funebre pour Harpolyre
TTITLE11=Vanhal 6 Variations Op 42
EXTD=
EXTT0=
EXTT1=
EXTT2=
EXTT3=
EXTT4=
EXTT5=
EXTT6=
EXTT7=
EXTT8=
EXTT9=
EXTT10=
EXTT11=
PLAYORDER=
